<?xml version="1.0" encoding="UTF-8"?>
<svg width="15px" height="18px" viewBox="0 0 15 18" version="1.1" xmlns="http://www.w3.org/2000/svg" xmlns:xlink="http://www.w3.org/1999/xlink">
    <!-- Generator: Sketch 43.2 (39069) - http://www.bohemiancoding.com/sketch -->
    <title>currency</title>
    <desc>Created with Sketch.</desc>
    <defs></defs>
    <g id="Page-1" stroke="none" stroke-width="1" fill="none" fill-rule="evenodd">
        <g id="Desktop-HD" transform="translate(-429.000000, -232.000000)" fill-rule="nonzero" fill="#000000">
            <g id="currency" transform="translate(429.000000, 232.000000)">
                <path d="M11.3472111,13.0204864 C11.0073804,12.8101741 10.5880997,12.7045491 10.1827076,12.6024321 C10.0942397,12.5801331 10.0060763,12.5579383 9.91970118,12.534771 C9.42374839,12.4016716 9.10572067,12.1390157 9.06892564,11.8320396 C9.03917,11.5837634 9.20290215,11.3442749 9.50673697,11.1914468 C9.57096654,11.1591792 9.6424638,11.135074 9.71902181,11.1180198 L9.71902181,11.669104 C9.71902181,11.8736853 9.90071389,12.0396079 10.1249086,12.0396079 C10.3490272,12.0396079 10.5307954,11.8736853 10.5307954,11.669104 L10.5307954,11.1451121 C10.7677371,11.1984282 10.9985526,11.284394 11.1875885,11.3887339 C11.379364,11.4947411 11.6289005,11.4387157 11.7449551,11.2636233 C11.8610097,11.0885657 11.799672,10.8607824 11.6078965,10.75481 C11.3075623,10.5888526 10.9272456,10.4525229 10.5308334,10.3868416 L10.5308334,10.1205039 C10.5308334,9.91592268 10.3490653,9.75 10.1249466,9.75 C9.90078999,9.75 9.71905986,9.91592268 9.71905986,10.1205039 L9.71905986,10.3644037 C9.50612815,10.3918085 9.30130125,10.4487717 9.11508114,10.5424137 C8.52331669,10.8400811 8.1964612,11.3650456 8.26202255,11.912587 C8.3356126,12.5270601 8.86973024,13.0253839 9.69082624,13.2456647 C9.70007256,13.2481308 9.70969939,13.2505622 9.71902181,13.2530283 L9.71902181,14.9974915 C9.3831483,14.9463982 9.10522601,14.8165291 9.01618737,14.660054 C8.91295583,14.4784317 8.66802349,14.4076098 8.4690564,14.5018074 C8.2700893,14.5960398 8.19246588,14.8196551 8.29565937,15.0013122 C8.54249424,15.4356218 9.11515724,15.6802857 9.71898376,15.7427368 L9.71898376,16.1294961 C9.71898376,16.3340773 9.90067584,16.5 10.1248705,16.5 C10.3489892,16.5 10.5307573,16.3340773 10.5307573,16.1294961 L10.5307573,15.7159919 C10.6149255,15.7010912 10.6970769,15.6825781 10.7758799,15.659897 C11.4125061,15.4767465 11.8860471,14.9711286 11.9821251,14.3717994 C12.0696417,13.8259599 11.8322814,13.3207936 11.3472111,13.0204864 Z M11.1789129,14.2645418 C11.1276206,14.5845777 10.8736702,14.8548751 10.5318989,14.9531713 C10.5315564,14.9532755 10.5311759,14.953345 10.5307954,14.9535186 L10.5307954,13.4737954 C10.6672832,13.5198175 10.7913666,13.571779 10.8916682,13.6338133 C11.210533,13.8312395 11.1988134,14.1406469 11.1789129,14.2645418 Z" id="Shape"></path>
                <path d="M10.1251081,8.25004687 C9.9989336,8.25004687 9.87374347,8.25489844 9.74995957,8.26432031 L9.74995957,1.78126172 C9.74995957,1.38976172 9.47560298,0.837351562 8.16882329,0.428941406 C7.28366821,0.152367187 6.11389103,0 4.87499736,0 C3.6361037,0 2.46636167,0.152367187 1.58117144,0.428941406 C0.274321433,0.837351562 0,1.38976172 0,1.78126172 L0,13.1250937 C0,13.5165586 0.274321433,14.0689687 1.58117144,14.4773437 C2.46636167,14.7539531 3.63613885,14.9063203 4.87499736,14.9063203 C5.1111395,14.9063203 5.34728163,14.9003789 5.58040036,14.8891289 C6.28886191,16.7077617 8.05878534,18 10.1250729,18 C12.8131277,18 15,15.8131406 15,13.1250937 C15.0000352,10.4369766 12.8131628,8.25004687 10.1251081,8.25004687 Z M1.80486839,1.14479297 C2.61960621,0.890191406 3.70989592,0.749988281 4.87499736,0.749988281 C6.0400285,0.749988281 7.13038852,0.890191406 7.94512634,1.14479297 C8.80616447,1.41387891 8.99997891,1.70166797 8.99997891,1.78126172 C8.99997891,1.86089063 8.80616447,2.14864453 7.94512634,2.41776563 C7.13038852,2.67233203 6.04009881,2.81253516 4.87499736,2.81253516 C3.70989592,2.81253516 2.61957105,2.67233203 1.80486839,2.41773047 C0.943759946,2.14864453 0.749980664,1.86089063 0.749980664,1.78126172 C0.749980664,1.70170313 0.943759946,1.41391406 1.80486839,1.14479297 Z M0.749980664,2.78634375 C0.964818326,2.90837109 1.23685463,3.02600391 1.58117144,3.13358203 C2.46636167,3.41019141 3.63613885,3.56252344 4.87499736,3.56252344 C6.11385587,3.56252344 7.28366821,3.41015625 8.16882329,3.13361719 C8.5131401,3.02603906 8.78514124,2.90840625 8.99997891,2.78637891 L8.99997891,3.672 C8.99997891,3.75155859 8.80616447,4.03934766 7.94512634,4.30846875 C7.13035336,4.56303516 6.04009881,4.70323828 4.87499736,4.70323828 C4.33429973,4.70323828 3.80639884,4.67279297 3.30595471,4.61281641 C3.10043335,4.58796094 2.91361494,4.73487891 2.88900581,4.94050781 C2.86436153,5.14613672 3.01106708,5.33285156 3.21669389,5.35746094 C3.74663382,5.42098828 4.30455784,5.45322656 4.87503252,5.45322656 C6.11392619,5.45322656 7.28370337,5.30085938 8.16882329,5.02428516 C8.5131401,4.91670703 8.78514124,4.79907422 8.99997891,4.67708203 L8.99997891,7.45319531 C8.99997891,7.53282422 8.80616447,7.82057813 7.94512634,8.08969922 C7.13038852,8.34430078 6.04009881,8.48446875 4.87499736,8.48446875 C3.70989592,8.48446875 2.6195359,8.34430078 1.80486839,8.08969922 C0.943759946,7.82061328 0.749945508,7.53282422 0.749945508,7.45319531 L0.749945508,6.56771484 C0.96478317,6.68970703 1.23681947,6.807375 1.58113629,6.91495313 C2.46632651,7.1915625 3.6361037,7.34389453 4.87496221,7.34389453 C5.61302502,7.34389453 6.31983425,7.29091406 6.9757729,7.18639453 C7.18034504,7.15383984 7.31973816,6.96160547 7.28714865,6.75710156 C7.25455913,6.55252734 7.06183453,6.41323828 6.85782488,6.44575781 C6.24945215,6.54264844 5.56380677,6.59387109 4.87496221,6.59387109 C3.70993107,6.59387109 2.6195359,6.45366797 1.80483323,6.19906641 C0.94372479,5.92998047 0.749910352,5.64222656 0.749910352,5.56263281 L0.749910352,2.78634375 L0.749980664,2.78634375 Z M4.87499736,14.156332 C3.70996623,14.156332 2.61957105,14.0161289 1.80486839,13.7615273 C0.943759946,13.4924414 0.749945508,13.2046875 0.749945508,13.1250937 L0.749945508,12.2395078 C0.96478317,12.3615 1.23681947,12.479168 1.58113629,12.5867461 C2.46629136,12.8633555 3.6361037,13.0157227 4.87496221,13.0157227 C5.00043359,13.0157227 5.12611591,13.0139648 5.2513412,13.0107656 C5.2504623,13.048875 5.24997012,13.0869141 5.24997012,13.1250937 C5.24997012,13.1677734 5.25056777,13.2102422 5.2516576,13.2526758 C5.25200916,13.2658594 5.25267712,13.2791133 5.2531693,13.2923672 C5.25415367,13.3215469 5.25510288,13.3507617 5.25661458,13.3797656 C5.25742317,13.3957617 5.25868878,13.4117578 5.25963799,13.4276836 C5.26125516,13.4538047 5.26280202,13.4800312 5.26477075,13.5060469 C5.26614183,13.5236953 5.26793478,13.5413086 5.26948164,13.5588867 C5.2716613,13.5831445 5.27366519,13.6074375 5.27619641,13.6315898 C5.2782003,13.6506445 5.28055574,13.6696641 5.28277057,13.6886133 C5.2853721,13.7110781 5.28786817,13.7335781 5.29075095,13.7559727 C5.2934228,13.7767148 5.29648136,13.7974219 5.29943446,13.8180586 C5.30231724,13.8383438 5.30512971,13.8586992 5.30829374,13.8789141 C5.31184449,13.9015547 5.31571164,13.924125 5.31957879,13.9467305 C5.32260219,13.9646602 5.3256256,13.982625 5.32882479,14.0005195 C5.33332474,14.0252344 5.33821141,14.0498789 5.34306292,14.0745586 C5.34605117,14.0897813 5.34903942,14.1050391 5.3521683,14.1201914 C5.35403156,14.1293672 5.35571904,14.1386836 5.35772293,14.1479297 C5.19765815,14.1535195 5.03632776,14.156332 4.87499736,14.156332 Z M5.68161417,11.119957 C5.68147355,11.1203437 5.68126261,11.120625 5.68112199,11.1210117 C5.66793853,11.1502969 5.65510663,11.1796875 5.64245051,11.2092539 C5.63886461,11.2176562 5.63513808,11.2259883 5.63162249,11.2344258 C5.62578661,11.2482773 5.62023198,11.2621992 5.61453673,11.2761211 C5.48593647,11.5886602 5.38869527,11.9172656 5.32724277,12.2581758 C5.17702164,12.2630273 5.0258513,12.2657344 4.87496221,12.2657344 C3.70986076,12.2657344 2.6195359,12.1255312 1.80483323,11.8709297 C0.94372479,11.6018437 0.749910352,11.3140547 0.749910352,11.2344609 L0.749910352,8.45824219 L0.749945508,8.45824219 C0.96478317,8.58023437 1.23681947,8.69790234 1.58113629,8.80548047 C2.46629136,9.08205469 3.63606854,9.23442187 4.87496221,9.23442187 C5.86220999,9.23442187 6.80505589,9.13742578 7.59543067,8.95816406 C7.15524374,9.22570312 6.75625951,9.56309766 6.41668874,9.96053906 C6.3186038,10.0753945 6.22642504,10.1944336 6.13994155,10.3170937 C5.73213319,10.3554844 5.30657111,10.3750664 4.87496221,10.3750664 C4.33426457,10.3750664 3.80636369,10.3446211 3.30591955,10.2846445 C3.1003982,10.2599648 2.91357978,10.4066719 2.88897066,10.6123359 C2.86432638,10.8179648 3.01103192,11.0046797 3.21665874,11.0292891 C3.74659867,11.0928164 4.30452269,11.1250547 4.87499736,11.1250547 C5.14988129,11.1250547 5.42205821,11.116582 5.69001643,11.1017109 C5.68723911,11.1078281 5.68439149,11.113875 5.68161417,11.119957 Z M10.1251081,17.2500117 C8.27763077,17.2500117 6.7099592,16.0292461 6.18634733,14.352082 C6.17998411,14.3316914 6.17404276,14.3111602 6.16799595,14.2906992 C6.15787105,14.2563867 6.14820318,14.2218984 6.13892203,14.1872344 C6.13273459,14.1639609 6.12672293,14.1406172 6.12092221,14.1172734 C6.11617616,14.0980078 6.11125434,14.0788125 6.10675438,14.0593711 C6.09764901,14.0199961 6.08914128,13.9804805 6.08112574,13.9407891 C6.07785624,13.924582 6.07483283,13.9083047 6.07173912,13.8920273 C6.06523527,13.8575391 6.05915331,13.8229453 6.05356352,13.7883164 C6.05180572,13.7774883 6.04983699,13.7667305 6.04818467,13.7558672 C6.04136442,13.7117461 6.03545823,13.6674492 6.03011454,13.623082 C6.02856768,13.6101797 6.02712629,13.5972773 6.0256849,13.584375 C6.02093885,13.5413437 6.01661468,13.4982773 6.01320455,13.4551055 C6.01288815,13.4513086 6.01253659,13.447582 6.01222019,13.4437852 C6.00863429,13.3970625 6.00606791,13.3501992 6.00406402,13.3032305 C6.00353668,13.2914531 6.00311481,13.2796758 6.0027281,13.2678984 C6.00107577,13.2203672 5.99998594,13.1728008 5.99998594,13.1250937 C5.99998594,13.0678945 6.0015328,13.0110469 6.00381793,12.9544102 C6.00420464,12.9451641 6.00445074,12.9358125 6.00487261,12.9265664 C6.00726321,12.8754844 6.01084911,12.8246484 6.01506782,12.7740586 C6.01640374,12.7581328 6.01777482,12.742207 6.01932168,12.7263516 C6.0236107,12.6814219 6.02867315,12.6367031 6.03433325,12.5922305 C6.03746212,12.5681484 6.04094255,12.5442422 6.04445814,12.5203008 C6.04765733,12.4983281 6.05124323,12.4764609 6.05475882,12.4545937 C6.06351264,12.4013672 6.07293442,12.3484219 6.08376243,12.2959336 C6.0838679,12.2953008 6.08404368,12.294668 6.0841843,12.2940352 C6.39334522,10.7885391 7.52532982,9.57972656 8.98760403,9.15964453 C8.99361569,9.15795703 8.99952188,9.15619922 9.00549838,9.15451172 C9.03931835,9.14498437 9.07341957,9.13587891 9.10762625,9.127125 C9.14664929,9.11731641 9.18591842,9.10785938 9.2254688,9.09910547 C9.24055068,9.09573047 9.25573803,9.09239063 9.27096053,9.08915625 C9.32267485,9.07832812 9.37477588,9.06823828 9.42726363,9.05930859 C9.65415976,9.02049609 9.88731364,8.99996484 10.1251784,8.99996484 C12.3996241,8.99996484 14.2500896,10.8504844 14.2500896,13.1250234 C14.2500193,15.3995625 12.3995538,17.2500117 10.1251081,17.2500117 Z" id="Shape"></path>
                <path d="M1.72793936,5.19810128 C1.77533968,5.2126063 1.82385834,5.22671211 1.87326593,5.24031889 C1.89706645,5.24690604 1.92089565,5.25 1.94432339,5.25 C2.08271052,5.25 2.20819376,5.14024751 2.24162919,4.97716575 C2.28071366,4.78653774 2.179203,4.59517783 2.0148647,4.54983298 C1.97036059,4.53755694 1.92668806,4.52488167 1.8839905,4.51184045 C1.72051245,4.46180476 1.55324927,4.57495063 1.5102076,4.76444751 C1.4670799,4.95397766 1.56457602,5.14813212 1.72793936,5.19810128 Z" id="Shape"></path>
                <path d="M2.01468729,9.79963293 C1.97012493,9.78735396 1.92633682,9.77467568 1.88358105,9.76166463 C1.72038647,9.71204961 1.55294786,9.82525571 1.51007738,10.0149308 C1.46723558,10.2045061 1.56493439,10.3985737 1.72832969,10.4483218 C1.77570229,10.4627305 1.8241359,10.4767398 1.87345845,10.4903499 C1.8972021,10.496872 1.92097443,10.5 1.94431662,10.5 C2.08279256,10.5 2.20827833,10.3901215 2.24165708,10.2269344 C2.28068499,10.0361944 2.17905758,9.84485547 2.01468729,9.79963293 Z" id="Shape"></path>
            </g>
        </g>
    </g>
</svg>