<?xml version="1.0" encoding="UTF-8"?>
<svg width="515px" height="405px" viewBox="0 0 515 405" version="1.1" xmlns="http://www.w3.org/2000/svg" xmlns:xlink="http://www.w3.org/1999/xlink">
    <!-- Generator: Sketch 48.2 (47327) - http://www.bohemiancoding.com/sketch -->
    <title>holidays</title>
    <desc>Created with Sketch.</desc>
    <defs></defs>
    <g id="Page-1" stroke="none" stroke-width="1" fill="none" fill-rule="evenodd">
        <g id="holidays" transform="translate(2.000000, 2.000000)" fill="#000000" fill-rule="nonzero" stroke="#000000" stroke-width="4">
            <path d="M507.356,376.18 C494.24,367.284 479.032,363.255 464.016,364.067 C450.155,344.974 424.008,328.606 387.984,316.542 C365.623,309.054 340.668,303.649 314.135,300.44 L368.05,165.169 C376.185,171.044 383.285,178.022 389.088,185.916 C391.006,188.526 393.965,190.003 397.229,189.208 C415.036,185.979 433.919,188.048 451.857,195.197 C469.93,202.4 485.148,214.004 495.865,228.754 C497.302,230.731 499.579,231.855 501.952,231.855 C502.554,231.855 503.162,231.783 503.764,231.633 C506.738,230.896 508.968,228.428 509.402,225.395 C509.686,223.404 516.201,176.035 500.679,124.43 C499.483,120.45 495.277,118.195 491.306,119.391 C487.326,120.588 485.07,124.785 486.268,128.764 C495.328,158.888 496.317,188.015 495.761,205.783 C485.021,195.389 472.022,187.031 457.429,181.215 C440.839,174.603 423.482,171.792 406.586,172.915 C406.714,172.526 406.83,172.146 406.956,171.759 C412.836,153.795 417.221,135.282 419.378,116.489 C421.351,99.292 421.535,81.921 419.37,64.733 C418.116,54.779 415.982,44.934 412.92,35.378 C412.898,35.309 412.876,35.235 412.853,35.166 C439.855,49.795 460.611,71.351 474.699,99.45 C476.561,103.165 481.083,104.666 484.798,102.804 C488.513,100.942 490.014,96.42 488.152,92.704 C469.478,55.458 440.178,28.667 401.041,13.066 C347.213,-8.385 291.189,-1.329 239.035,33.472 C200.103,59.449 177.306,91.311 176.354,92.654 C174.583,95.154 174.506,98.478 176.157,101.058 C177.808,103.638 180.854,104.961 183.871,104.4 C201.798,101.067 220.826,103.112 238.898,110.315 C256.708,117.414 271.747,128.786 282.439,143.232 C284.519,146.042 287.553,147.77 291.114,146.712 C300.671,145.018 310.532,144.85 320.388,146.168 L260.265,297.023 C258.748,297.01 257.236,296.983 255.714,296.983 C221.03,296.983 187.883,300.438 157.194,307.252 C153.137,308.153 150.578,312.172 151.48,316.23 C152.381,320.287 156.393,322.847 160.457,321.945 C189.659,315.461 222.599,312.034 255.714,312.034 C271.41,312.034 287.116,312.78 302.736,314.332 C302.792,314.337 302.847,314.336 302.904,314.34 C331.951,317.22 359.174,322.763 383.203,330.811 C411.889,340.418 434.036,353.078 447.034,367.109 C440.476,369.146 434.133,372.166 428.216,376.178 C409.311,388.999 384.88,388.999 365.974,376.178 C341.935,359.875 310.871,359.876 286.835,376.178 C267.93,388.999 243.499,388.999 224.593,376.178 C200.555,359.875 169.491,359.876 145.454,376.178 C126.549,388.999 102.118,388.999 83.212,376.178 C77.296,372.166 70.953,369.145 64.395,367.109 C77.376,353.098 99.483,340.452 128.112,330.85 C132.052,329.529 134.175,325.263 132.854,321.322 C131.533,317.382 127.269,315.258 123.327,316.58 C87.366,328.64 61.259,344.995 47.414,364.065 C32.397,363.253 17.19,367.284 4.074,376.178 C0.634,378.511 -0.263,383.19 2.07,386.63 C4.402,390.07 9.078,390.968 12.522,388.635 C23.692,381.06 36.792,377.963 49.541,379.34 C49.999,379.439 50.461,379.502 50.925,379.513 C59.273,380.629 67.435,383.664 74.766,388.636 C98.802,404.937 129.865,404.939 153.904,388.636 C172.811,375.814 197.243,375.815 216.147,388.636 C240.184,404.937 271.247,404.939 295.285,388.636 C314.191,375.814 338.623,375.815 357.528,388.636 C369.547,396.787 383.322,400.863 397.098,400.863 C410.873,400.863 424.648,396.787 436.668,388.636 C443.982,383.676 452.124,380.643 460.453,379.521 C460.946,379.512 461.437,379.445 461.925,379.337 C474.664,377.969 487.751,381.066 498.911,388.635 C502.351,390.968 507.031,390.071 509.363,386.63 C511.692,383.193 510.795,378.513 507.356,376.18 Z M301.325,130.403 C301.405,130.233 301.488,130.065 301.569,129.895 C308.579,115.221 316.756,101.037 326.295,87.855 C328.627,84.633 327.959,79.77 324.611,77.347 C321.336,74.976 316.467,75.763 314.102,79.032 C306.443,89.615 299.638,100.816 293.531,112.361 C291.325,116.533 289.084,120.755 287.192,125.082 C287.159,125.152 287.124,125.222 287.091,125.292 C275.595,112.851 261.066,102.952 244.471,96.34 C229.874,90.522 214.682,87.649 199.736,87.805 C209.783,76.506 226.287,60.012 247.771,45.742 C269.073,31.592 291.061,22.355 313.121,18.288 C334.464,14.354 356,15.277 377.37,21.018 C377.284,21.065 377.192,21.117 377.106,21.164 C365.545,27.509 354.826,35.338 345.094,44.227 C341.298,47.694 337.595,51.258 334.047,54.977 C331.179,57.985 331.292,62.749 334.3,65.617 C337.308,68.485 342.071,68.372 344.94,65.364 C354.586,55.246 365.478,45.993 377.368,38.512 C382.848,35.063 388.568,31.947 394.541,29.435 C396.11,32.994 398.151,38.263 400.068,45.164 C409.142,77.853 406.69,113.129 398.736,145.772 C397.025,152.792 395.048,159.751 392.806,166.619 C392.783,166.69 392.758,166.763 392.735,166.835 C382.495,156.001 369.92,147.155 355.683,140.788 C355.488,140.701 355.293,140.614 355.098,140.528 C338.26,133.096 319.73,129.387 301.325,130.403 Z M298.576,298.82 C295.087,298.518 291.574,298.26 288.041,298.032 C284.136,297.764 280.224,297.567 276.313,297.408 L335.333,149.329 C338.905,150.352 342.421,151.569 345.864,152.962 C346.423,153.189 355.046,157.139 355.03,157.179 L298.576,298.82 Z" id="Shape"></path>
        </g>
    </g>
</svg>