<?xml version="1.0" encoding="UTF-8"?>
<svg width="16px" height="17px" viewBox="0 0 16 17" version="1.1" xmlns="http://www.w3.org/2000/svg" xmlns:xlink="http://www.w3.org/1999/xlink">
    <!-- Generator: Sketch 43.2 (39069) - http://www.bohemiancoding.com/sketch -->
    <title>settings</title>
    <desc>Created with Sketch.</desc>
    <defs></defs>
    <g id="Page-1" stroke="none" stroke-width="1" fill="none" fill-rule="evenodd">
        <g id="Desktop-HD" transform="translate(-428.000000, -252.000000)" stroke="#000000" stroke-width="0.1" fill="#000000" fill-rule="nonzero">
            <g id="settings" transform="translate(428.000000, 253.000000)">
                <path d="M11.2628256,12.3122012 C11.2172896,12.426041 11.087187,12.4780821 10.9765997,12.4325462 L10.2415196,12.1268049 C10.1114169,12.0715112 9.96179886,12.1170472 9.88373726,12.2341396 C9.55197545,12.7317823 9.12914177,13.154616 8.63149906,13.4863778 C8.51440665,13.5644394 8.46887072,13.7140575 8.52416435,13.8441601 L8.82665306,14.5792402 C8.872189,14.6898275 8.82014793,14.8199302 8.70630809,14.8654661 L7.90617667,15.2004805 C7.7955894,15.2460164 7.66548673,15.1939753 7.61995079,15.0801355 L7.31420952,14.3450554 C7.25891588,14.2149527 7.12230808,14.1401437 6.98570027,14.1694168 C6.40023825,14.2865092 5.80501854,14.2865092 5.21630395,14.1694168 C5.07969615,14.1433963 4.93983578,14.2149527 4.88779471,14.3450554 L4.58205343,15.0801355 C4.5365175,15.1907228 4.40641483,15.2460164 4.29582756,15.2004805 L3.49569613,14.8687187 C3.4404025,14.8459507 3.39811913,14.8036673 3.37535116,14.7483737 C3.35258319,14.6930801 3.35258319,14.6345339 3.37535116,14.5792402 L3.68109244,13.8441601 C3.73638607,13.7140575 3.69085014,13.5644394 3.57375773,13.4863778 C3.07611502,13.154616 2.65328134,12.7317823 2.32151953,12.2341396 C2.24345793,12.1170472 2.09383986,12.0715112 1.96373719,12.1268049 L1.2286571,12.4325462 C1.11481726,12.4780821 0.987967155,12.426041 0.942431221,12.3122012 L0.61066941,11.5120698 C0.565133476,11.4014825 0.617174544,11.2713798 0.731014381,11.2258439 L1.46609447,10.9201026 C1.59619714,10.864809 1.67100618,10.7282012 1.64173308,10.5915934 C1.52464067,10.0061313 1.52464067,9.41091163 1.64173308,8.82219705 C1.66775361,8.68558924 1.59619714,8.54572887 1.46609447,8.4936878 L0.731014381,8.18794653 C0.675720746,8.16517856 0.633437378,8.12289519 0.61066941,8.06760156 C0.587901443,8.01230792 0.587901443,7.95376172 0.61066941,7.89846808 L0.942431221,7.09833666 C0.965199188,7.04304302 1.00748256,7.00075966 1.06277619,6.97799169 C1.11806983,6.95522372 1.17661603,6.95522372 1.23190966,6.97799169 L1.96698975,7.28373297 C2.09709242,7.3390266 2.24671049,7.29349067 2.3247721,7.17639826 C2.65653391,6.67875555 3.07936759,6.25592187 3.5770103,5.92416006 C3.6941027,5.84609845 3.73963864,5.69648038 3.684345,5.56637771 L3.37860373,4.83129762 C3.35583576,4.77600399 3.35583576,4.71745779 3.37860373,4.66216415 C3.4013717,4.60687052 3.44365506,4.56458715 3.4989487,4.54181918 L4.29908012,4.21005737 C4.40966739,4.16452144 4.53977006,4.2165625 4.585306,4.33040234 L4.89104728,5.06548243 C4.95284604,5.2151005 5.12523208,5.28665697 5.27485015,5.2248582 C5.42446822,5.16305943 5.49602469,4.9906734 5.43422593,4.84105532 L5.12848465,4.10597523 C4.95609861,3.69289926 4.48447643,3.49774525 4.07140045,3.66687872 L3.27126903,3.99864053 C3.07286245,4.0799547 2.91673925,4.23607791 2.83217251,4.43773704 C2.75085834,4.63614362 2.75085834,4.85731816 2.83217251,5.0589773 L3.04684192,5.57613541 C2.63701851,5.87862412 2.27598359,6.23965903 1.97024232,6.65273501 L1.4530842,6.43806561 C1.25467763,6.35675144 1.03350309,6.35675144 0.831843951,6.43806561 C0.633437378,6.51937978 0.477314173,6.67550298 0.392747437,6.87716212 L0.0609856269,7.67729354 C-0.0203285423,7.87570012 -0.0203285423,8.09687466 0.0609856269,8.2985338 C0.142299796,8.49694037 0.298423001,8.65306357 0.50008214,8.73763031 L1.01724026,8.95229972 C0.939178654,9.45970013 0.939178654,9.96710055 1.01724026,10.474501 L0.50008214,10.6891704 C0.087006161,10.8615564 -0.108147845,11.3331786 0.0609856269,11.7462546 L0.392747437,12.5366283 C0.561880909,12.9497043 1.03675566,13.1448583 1.44983164,12.9757248 L1.96698975,12.7610554 C2.26947846,13.1708788 2.63051337,13.5319137 3.04358935,13.837655 L2.82891995,14.3548131 C2.74760578,14.5532197 2.74760578,14.7743942 2.82891995,14.9760534 C2.91023411,15.1744599 3.06635732,15.3305831 3.26801646,15.4151499 L4.06814788,15.7469117 C4.48122386,15.9160452 4.95609861,15.7208912 5.12523208,15.3078152 L5.33990149,14.7906571 C5.8473019,14.8687187 6.35470232,14.8687187 6.86210274,14.7906571 L7.07677214,15.3078152 C7.20687481,15.6200616 7.50936352,15.8087105 7.8248625,15.8087105 C7.92894463,15.8087105 8.03302677,15.7891951 8.13385634,15.7469117 L8.93398777,15.4151499 C9.34706375,15.2427638 9.54221775,14.7711417 9.37308428,14.3580657 L9.15841487,13.8409076 C9.56823829,13.5384189 9.9292732,13.1773839 10.2350145,12.764308 L10.7521726,12.9789774 C11.1652486,13.1513634 11.6401233,12.9529568 11.8092568,12.5398809 L12.1410186,11.7397494 C12.2223328,11.5413429 12.2223328,11.3201683 12.1410186,11.1185092 C12.0597044,10.9201026 11.9035812,10.7639794 11.7019221,10.6794127 L10.966842,10.3736714 C10.8172239,10.3118726 10.6448379,10.3834291 10.5830391,10.5330472 C10.5212403,10.6826652 10.5927968,10.8550513 10.7424149,10.91685 L11.477495,11.2225913 C11.5327886,11.2453593 11.575072,11.2876427 11.5978399,11.3429363 C11.6206079,11.3982299 11.6206079,11.4567761 11.5978399,11.5120698 L11.2628256,12.3122012 Z" id="Shape"></path>
                <path d="M6.08473928,7.69355638 C6.24736762,7.69355638 6.37747029,7.56020114 6.37747029,7.3975728 C6.37747029,7.23494446 6.24411505,7.10484179 6.08148671,7.10484179 C6.08148671,7.10484179 6.08148671,7.10484179 6.07823414,7.10484179 C5.38218486,7.11134693 4.7316715,7.38456254 4.24378649,7.87895268 C3.75590147,8.37334283 3.489191,9.03036132 3.49569613,9.72315804 C3.50220127,10.4192073 3.77541687,11.0697207 4.26980702,11.5576057 C4.7609446,12.0422381 5.40820539,12.3056961 6.09449698,12.3056961 L6.11401238,12.3056961 C6.81006167,12.2991909 7.46057502,12.0259753 7.94846004,11.5315852 C8.43634505,11.037195 8.70305553,10.3801765 8.69655039,9.68737981 C8.69655039,9.52475147 8.56319515,9.3946488 8.40056682,9.3946488 C8.40056682,9.3946488 8.40056682,9.3946488 8.39731425,9.3946488 C8.23468591,9.3946488 8.10458324,9.52800403 8.10458324,9.69063237 C8.10783581,10.2273059 7.9029241,10.7347063 7.52562636,11.1185092 C7.14832861,11.5023121 6.64418076,11.7137289 6.10750725,11.7169815 L6.09124441,11.7169815 C5.56107603,11.7169815 5.05692818,11.5120698 4.67963044,11.1380246 C4.29582756,10.7607268 4.08441072,10.256579 4.08115815,9.71990547 C4.07790558,9.18323196 4.28281729,8.67583154 4.66011503,8.29202866 C5.04391791,7.91147835 5.54806576,7.69680894 6.08473928,7.69355638 Z" id="Shape"></path>
                <path d="M15.2732404,5.68997525 C15.6407804,5.68997525 15.9432691,5.39073911 15.9432691,5.0199465 L15.9432691,4.39220111 C15.9432691,4.02466107 15.644033,3.72217236 15.2732404,3.72217236 L14.9317209,3.72217236 C14.8439016,3.39691568 14.7170515,3.08466927 14.547918,2.79519083 L14.7918605,2.55124832 C15.0520659,2.29104298 15.0520659,1.86495673 14.7918605,1.60475139 L14.3462589,1.15914974 C14.2194088,1.03229964 14.0502753,0.963995738 13.8746367,0.963995738 C13.6957455,0.963995738 13.526612,1.03229964 13.4030145,1.15914974 L13.159072,1.40309225 C12.866341,1.23395878 12.5573471,1.10385611 12.2320905,1.01928937 L12.2320905,0.674517296 C12.2320905,0.306977251 11.9328543,0.00448854214 11.5620617,0.00448854214 L10.9310638,0.00448854214 C10.5635237,0.00448854214 10.261035,0.303724685 10.261035,0.674517296 L10.261035,1.01928937 C9.93577833,1.10710868 9.62353192,1.23395878 9.33405348,1.40309225 L9.09011097,1.15914974 C8.96326087,1.03229964 8.79412739,0.963995738 8.61848879,0.963995738 C8.43959762,0.963995738 8.27046415,1.03229964 8.14686661,1.15914974 L7.70126496,1.60475139 C7.44105962,1.86495673 7.44105962,2.29104298 7.70126496,2.55124832 L7.94520747,2.79519083 C7.776074,3.08792184 7.64597133,3.39691568 7.56140459,3.72217236 L7.21663251,3.72217236 C6.84909247,3.72217236 6.54660376,4.0214085 6.54660376,4.39220111 L6.54660376,5.02319906 C6.54660376,5.39073911 6.8458399,5.69322782 7.21663251,5.69322782 L7.56140459,5.69322782 C7.64922389,6.01848449 7.776074,6.3307309 7.94520747,6.62020935 L7.70126496,6.86415185 C7.44105962,7.12435719 7.44105962,7.55044344 7.70126496,7.81064878 L8.14686661,8.25625043 C8.27371671,8.38310053 8.44285018,8.45140443 8.61848879,8.45140443 C8.79737996,8.45140443 8.96651343,8.38310053 9.09011097,8.25625043 L9.33405348,8.01230792 C9.62678449,8.18144139 9.93577833,8.31154406 10.261035,8.3961108 L10.261035,8.74088288 C10.261035,9.10842292 10.5602711,9.41091163 10.9310638,9.41091163 L11.5620617,9.41091163 C11.9296018,9.41091163 12.2320905,9.11167549 12.2320905,8.74088288 L12.2320905,8.39285823 C12.5573471,8.30503893 12.8695936,8.17818883 13.159072,8.00905535 L13.4030145,8.25299786 C13.5298646,8.37984797 13.6989981,8.44815187 13.8746367,8.44815187 C14.0535279,8.44815187 14.2226613,8.37984797 14.3462589,8.25299786 L14.7918605,7.80739621 C15.0520659,7.54719087 15.0520659,7.12110463 14.7918605,6.86089929 L14.547918,6.61695678 C14.7170515,6.32422577 14.8471541,6.01523193 14.9317209,5.68997525 L15.2732404,5.68997525 L15.2732404,5.68997525 Z M14.4080576,5.33869804 C14.3267435,5.75502659 14.1641151,6.1453346 13.9266778,6.49986437 C13.8486161,6.61695678 13.864879,6.77307998 13.962456,6.87065699 L14.3722794,7.2804804 C14.4048051,7.31300607 14.4048051,7.36179457 14.3722794,7.39432024 L13.9266778,7.83992188 C13.9071624,7.85943728 13.8843944,7.86268985 13.8713841,7.86268985 C13.8551213,7.86268985 13.8356059,7.85943728 13.8160905,7.83992188 L13.4062671,7.43009847 C13.3054375,7.3292689 13.1493143,7.31625863 13.0354745,7.39432024 C12.6809447,7.63175761 12.2906367,7.79113338 11.8743081,7.87570012 C11.7377003,7.90172065 11.6368707,8.02531819 11.6368707,8.16517856 L11.6368707,8.74413544 C11.6368707,8.78641881 11.6010925,8.82219705 11.5588091,8.82219705 L10.9278112,8.82219705 C10.8855278,8.82219705 10.8497496,8.78641881 10.8497496,8.74413544 L10.8497496,8.16517856 C10.8497496,8.02531819 10.74892,7.90497322 10.6123122,7.87570012 C10.1959837,7.79438595 9.80567566,7.63175761 9.45114588,7.39432024 C9.40235738,7.36179457 9.34381118,7.34553173 9.28851754,7.34553173 C9.21370851,7.34553173 9.13564691,7.37480483 9.08035327,7.43335104 L8.67052986,7.84317445 C8.65101446,7.86268985 8.62824649,7.86594242 8.61523622,7.86594242 C8.59897339,7.86594242 8.57945799,7.86268985 8.55994259,7.84317445 L8.11434094,7.3975728 C8.08181527,7.36504713 8.08181527,7.31625863 8.11434094,7.28373297 L8.52416435,6.87390955 C8.62499392,6.77307998 8.63800419,6.61695678 8.55994259,6.50311694 C8.32250521,6.14858716 8.16312944,5.75827915 8.07856271,5.34195061 C8.05254217,5.2053428 7.92894463,5.10451323 7.78908426,5.10451323 L7.21012738,5.10451323 C7.16784401,5.10451323 7.13206578,5.068735 7.13206578,5.02645163 L7.13206578,4.39220111 C7.13206578,4.34991774 7.16784401,4.31413951 7.21012738,4.31413951 L7.78908426,4.31413951 C7.92894463,4.31413951 8.04928961,4.21330994 8.07856271,4.07670213 C8.15987688,3.66037359 8.32250521,3.27006558 8.55994259,2.9155358 C8.63800419,2.79844339 8.62174136,2.64232019 8.52416435,2.54474319 L8.11434094,2.13491977 C8.09482554,2.11540437 8.09157297,2.09263641 8.09157297,2.07962614 C8.09157297,2.06336331 8.09482554,2.0438479 8.11434094,2.0243325 L8.55669002,1.57547829 C8.57620542,1.55596289 8.59897339,1.55271032 8.61198366,1.55271032 C8.62824649,1.55271032 8.64776189,1.55596289 8.66727729,1.57547829 L9.0771007,1.9853017 C9.17793027,2.08613127 9.33405348,2.09914154 9.44789331,2.02107994 C9.80242309,1.78364256 10.1927311,1.62426679 10.6090597,1.53970006 C10.7456675,1.51367952 10.846497,1.39008198 10.846497,1.25022161 L10.846497,0.674517296 C10.846497,0.632233928 10.8822753,0.596455694 10.9245586,0.596455694 L11.5555566,0.596455694 C11.5978399,0.596455694 11.6336182,0.632233928 11.6336182,0.674517296 L11.6336182,1.25347418 C11.6336182,1.39333455 11.7344478,1.51367952 11.8710556,1.54295262 C12.2873841,1.62426679 12.6776921,1.78689513 13.0322219,2.0243325 C13.1493143,2.10239411 13.3054375,2.08613127 13.4030145,1.98855427 L13.8128379,1.57873086 C13.8323533,1.55921546 13.8551213,1.55596289 13.8681316,1.55596289 C13.8843944,1.55596289 13.9039098,1.55921546 13.9234252,1.57873086 L14.3690268,2.0243325 C14.4015525,2.05685817 14.4015525,2.10564667 14.3690268,2.13817234 L13.9592034,2.54799575 C13.8583739,2.64882532 13.8453636,2.80494853 13.9234252,2.91878836 C14.1608626,3.27331814 14.3202383,3.66362615 14.4048051,4.0799547 C14.4308256,4.2165625 14.5544231,4.31739207 14.6942835,4.31739207 L15.2732404,4.31739207 C15.3155238,4.31739207 15.351302,4.35317031 15.351302,4.39545368 L15.351302,5.02645163 C15.351302,5.068735 15.3155238,5.10451323 15.2732404,5.10451323 L14.6942835,5.10451323 C14.5544231,5.10126067 14.4340782,5.19883767 14.4080576,5.33869804 Z" id="Shape"></path>
                <path d="M11.2433102,2.81470623 C10.1992362,2.81470623 9.35356888,3.66362615 9.35356888,4.70444752 C9.35356888,5.74852145 10.2024888,6.59418881 11.2433102,6.59418881 C12.2873841,6.59418881 13.1330515,5.74526888 13.1330515,4.70444752 C13.1330515,3.66362615 12.2841315,2.81470623 11.2433102,2.81470623 Z M11.2433102,6.00547423 C10.5244929,6.00547423 9.94228346,5.42326478 9.94228346,4.70444752 C9.94228346,3.98563026 10.5244929,3.40342081 11.2433102,3.40342081 C11.9621274,3.40342081 12.5443369,3.98563026 12.5443369,4.70444752 C12.5443369,5.42326478 11.9588749,6.00547423 11.2433102,6.00547423 Z" id="Shape"></path>
            </g>
        </g>
    </g>
</svg>