<?xml version="1.0" encoding="UTF-8"?>
<svg width="169px" height="97px" viewBox="0 0 169 97" version="1.1" xmlns="http://www.w3.org/2000/svg" xmlns:xlink="http://www.w3.org/1999/xlink">
    <!-- Generator: Sketch 45.2 (43514) - http://www.bohemiancoding.com/sketch -->
    <title>Group</title>
    <desc>Created with Sketch.</desc>
    <defs>
        <path d="M87.692,0 C100.462,0 103.9,3.239 104.824,5.064 C109.984,3.142 115.564,2.085 121.394,2.085 C122.744,2.085 124.079,2.155 125.401,2.265 C126.182,2.331 126.957,2.416 127.729,2.518 C150.942,5.617 168.853,25.482 168.853,49.543 C168.853,75.754 147.604,97.001 121.394,97.001 C110.001,97.001 99.549,92.983 91.368,86.291 C91.353,86.278 91.336,86.267 91.32,86.254 C91.031,86.026 90.769,85.784 90.495,85.548 C90.286,85.368 90.062,85.192 89.862,85.007 C89.862,85.007 81.055,94.996 66.167,94.996 C60.333,94.996 59.471,92.465 54.001,92.465 C47.971,92.465 43.917,94.782 43.917,94.782 C43.917,94.782 45.334,87.774 54.334,87.774 C63.334,87.774 65.001,79.437 55.667,79.437 C46.333,79.437 45.667,84.936 32.334,84.936 C19.001,84.936 11.334,76.935 11.334,76.935 C11.334,76.935 19.501,78.767 25.667,78.767 C31.833,78.767 38.001,77.267 41.834,73.434 C45.667,69.601 50.167,66.267 59.667,66.267 C66.001,66.267 72.59,67.892 76.28,67.078 C75.982,65.492 75.774,63.834 75.634,62.118 C75.26,60.756 74.948,59.37 74.696,57.962 C72.195,57.374 68.837,57.433 65.001,57.433 C56.835,57.433 46.316,64.356 37.982,64.356 C29.648,64.356 24.282,62.965 19.537,58.22 C15.855,54.538 0,56.767 0,56.767 C0,56.767 8.334,52.933 16.834,52.933 C25.334,52.933 32.834,54.434 37.334,54.434 C41.834,54.434 47.834,52.101 47.834,47.101 C47.834,42.101 45.501,39.601 39.001,39.601 C32.501,39.601 30.501,43.267 19.667,43.267 C8.833,43.267 3.001,36.434 3.001,36.434 C3.001,36.434 10.667,38.601 17.501,38.601 C24.335,38.601 35.001,30.267 48.501,30.267 C59.731,30.267 68.764,37.407 74.939,39.81 C75.506,37.09 76.316,34.458 77.327,31.93 C77.161,31.932 77.001,31.937 76.833,31.937 C67.333,31.937 61.417,29.357 56.833,24.773 C52.249,20.19 30.754,19.98 30.754,19.98 C30.754,19.98 37.162,16.291 46.996,16.291 C56.831,16.291 63.491,20.48 69.323,20.48 C75.156,20.48 85.055,20.612 85.055,13.445 C85.055,5.654 70.096,10.653 62.596,10.653 C52.673,10.653 47.471,0.403 47.471,0.403 C47.471,0.403 53.411,4.899 58.344,4.899 C68.971,4.899 76.221,0 87.692,0 Z M98.149,49.483 C98.149,62.321 108.556,72.729 121.395,72.729 C134.232,72.729 144.641,62.321 144.641,49.483 C144.641,36.644 134.232,26.238 121.395,26.238 C108.556,26.238 98.149,36.644 98.149,49.483 Z" id="path-1"></path>
    </defs>
    <g id="Page-1" stroke="none" stroke-width="1" fill="none" fill-rule="evenodd">
        <g id="Group">
            <g>
                <polyline id="Stroke-7" stroke="#FFFFFF" stroke-width="7" stroke-linecap="round" stroke-linejoin="round" points="131.4072 38.9873 119.6912 50.7043 119.6912 61.9783"></polyline>
                <mask id="mask-2" fill="white">
                    <use xlink:href="#path-1"></use>
                </mask>
                <use id="Clip-2" fill="#FFFFFF" xlink:href="#path-1"></use>
            </g>
        </g>
    </g>
</svg>