<?xml version="1.0" encoding="UTF-8"?>
<svg width="51px" height="51px" viewBox="0 0 51 51" version="1.1" xmlns="http://www.w3.org/2000/svg" xmlns:xlink="http://www.w3.org/1999/xlink">
    <!-- Generator: Sketch 45.2 (43514) - http://www.bohemiancoding.com/sketch -->
    <title>Combined Shape</title>
    <desc>Created with Sketch.</desc>
    <defs></defs>
    <g id="Page-1" stroke="none" stroke-width="1" fill="none" fill-rule="evenodd">
        <g id="Desktop-HD" transform="translate(-35.000000, -60.000000)" fill-rule="nonzero" fill="#FFFFFF">
            <g id="easter-bunny" transform="translate(35.000000, 60.000000)">
                <g id="Group-2">
                    <path d="M50.9899981,2.44905431 C50.9526453,1.49541409 50.3847842,0.642875274 49.5194956,0.23906731 C48.6542071,-0.164641048 47.6359217,-0.0507899122 46.8811972,0.533207645 C46.59134,0.757622876 39.742243,6.12018069 35.6597385,14.8749645 C34.0889315,18.2425874 33.1896768,21.5719612 32.649108,24.4509108 C30.4578472,23.4887043 28.0421711,22.9456454 25.4998942,22.9456454 C22.9576173,22.9456454 20.5419412,23.4888039 18.3506804,24.4509108 C17.8101116,21.5720608 16.910857,18.242687 15.34005,14.8749645 C11.2575455,6.12018069 4.4083488,0.757622876 4.11849158,0.533207645 C3.36376712,-0.0506903049 2.34548177,-0.164641048 1.48019321,0.239166917 C0.614904663,0.642875274 0.0479399524,1.49541409 0.00969075202,2.44905431 C-0.00475230543,2.81451347 -0.297996175,11.5081384 3.78450832,20.2630218 C5.84229539,24.675326 8.57671479,28.1661632 10.8452709,30.6302484 C8.83678943,33.5167681 7.65016775,37.017068 7.65016775,40.7926824 C7.65016775,44.2163843 8.62422746,47.5423714 10.4644722,50.4127548 C10.7084105,50.792657 11.1197886,50.9992425 11.5380396,50.9992425 C11.7743081,50.9992425 12.0140629,50.9345974 12.2256287,50.7978366 C12.8180929,50.4179343 12.9923061,49.6291442 12.6115074,49.03668 C11.0339271,46.5776748 10.2001144,43.7268145 10.2001144,40.7926824 C10.2001144,32.3574389 17.0628577,25.4955921 25.4997946,25.4955921 C33.9367315,25.4955921 40.7994748,32.3575385 40.7994748,40.7926824 C40.7994748,43.7243243 39.9673554,46.5725948 38.3940583,49.0299067 C38.0132596,49.6223709 38.1874727,50.4102646 38.7799369,50.7902664 C39.3647313,51.1710651 40.1594979,50.9993421 40.5402966,50.4043878 C42.3779515,47.537391 43.3495211,44.2139937 43.3495211,40.792782 C43.3495211,37.0171676 42.1628994,33.5177642 40.1536211,30.630348 C42.4221772,28.1662628 45.1565966,24.675326 47.2143836,20.2631214 C51.297685,11.5081384 51.0044411,2.81451347 50.9899981,2.44905431 Z M15.1835669,26.3021123 L8.4007087,12.3734269 C8.09212531,11.7376336 7.32803776,11.4800491 6.69563106,11.7852459 C6.06322436,12.0938293 5.79886661,12.8562235 6.10745,13.4903235 L13.164029,27.9799972 C12.9371236,28.1984359 12.6922889,28.3973517 12.4763403,28.6276438 C10.3964404,26.330102 7.94679827,23.153725 6.09639359,19.1851712 C2.22734752,10.8902743 2.55794412,2.54935886 2.55794412,2.54935886 C2.55794412,2.54935886 9.16061274,7.65771886 13.0297584,15.9527154 C14.6455879,19.4180531 15.5049,22.8512177 15.9860033,25.7190112 C15.7055091,25.8967106 15.4530046,26.1100695 15.1835669,26.3021123 Z M26.1944224,39.7731207 L31.639854,36.5011754 C32.1824064,36.175177 32.884098,36.3467212 33.2121998,36.8927744 C33.53803,37.435047 33.360018,38.140316 32.8197896,38.464918 L26.7729568,42.0982217 C26.6166965,42.1921124 26.4472356,42.2447321 26.2773012,42.2590202 C25.8896917,42.370423 25.4553653,42.2739812 25.1537941,41.97241 L18.0320832,34.8506991 C17.5869472,34.4055631 17.5856145,33.6851877 18.0360725,33.2347296 C18.4834118,32.7873904 19.2102085,32.7889068 19.652042,33.2307403 L26.1944224,39.7731207 Z M38.5241454,28.6285402 C38.3090932,28.3981486 38.0634617,28.1993324 37.8365562,27.9808936 L44.8930357,13.49122 C45.2016191,12.8580164 44.9372613,12.0947257 44.3048546,11.7861423 C43.6724479,11.4810452 42.9091572,11.73853 42.599777,12.3743234 L35.8169188,26.3030088 C35.547481,26.1108663 35.2950762,25.8976071 35.014582,25.7199077 C35.4947888,22.8512177 36.3542005,19.4181527 37.9708269,15.9536118 C41.8390761,7.65861533 48.4425416,2.55025532 48.4425416,2.55025532 C48.4425416,2.55025532 48.7731382,10.8911708 44.9040921,19.1852709 C43.0527909,23.1538246 40.6031488,26.3302016 38.5241454,28.6285402 Z" id="Combined-Shape"></path>
                </g>
            </g>
        </g>
    </g>
</svg>